<?xml version="1.0" encoding="utf-8"?>
<!-- Generator: Adobe Illustrator 23.0.3, SVG Export Plug-In . SVG Version: 6.00 Build 0)  -->
<svg version="1.1" id="レイヤー_1" xmlns="http://www.w3.org/2000/svg" xmlns:xlink="http://www.w3.org/1999/xlink" x="0px"
	 y="0px" viewBox="0 0 640 512" style="enable-background:new 0 0 640 512;" xml:space="preserve">
<style type="text/css">
	.st0{fill:#FFECBD;}
	.st1{fill:#FFB915;}
	.st2{fill:none;}
</style>
<g>
	<g>
		<path class="st0" d="M541,129v-16h-53V70h-16v43h-48V70h-16v43h-48V70h-16v43h-0.9c16.4,2.7,31.9,8.2,45.9,16h19v12.5
			c5.7,4.4,11,9.3,16,14.5v-27h48v38h-38.5c4,5.1,7.6,10.4,10.8,16H472v38h-12.3c1.3,5.2,2.3,10.6,3,16h9.2v38h-9.2
			c-0.7,5.4-1.7,10.8-3,16H472v38h-27.7c-3.3,5.6-6.9,10.9-10.8,16H472v38h-48v-27c-5,5.2-10.3,10-16,14.5V383h-19
			c-14.1,7.8-29.5,13.3-45.9,16h0.9v43h16v-43h48v43h16v-43h48v43h16v-43h53v-16h-53v-38h53v-16h-53v-38h53v-16h-53v-38h53v-16h-53
			v-38h53v-16h-53v-38H541z"/>
		<path class="st0" d="M249,383h-17v-11c-5.7-4.3-11-8.9-16-14v25h-48v-38h36.5c-4-5.1-7.6-10.4-10.8-16H168v-38h10.3
			c-1.3-5.2-2.3-10.6-3-16H168v-38h7.2c0.7-5.4,1.7-10.8,3-16H168v-38h25.7c3.3-5.6,6.9-10.9,10.8-16H168v-38h48v25
			c5-5,10.3-9.7,16-14v-11h17c14.4-7.9,30.2-13.5,47-16.2V70h-16v43h-48V70h-16v43h-48V70h-16v43H99v16h53v38H99v16h53v38H99v16h53
			v38H99v16h53v38H99v16h53v38H99v16h53v43h16v-43h48v43h16v-43h48v43h16v-42.8C279.2,396.5,263.3,390.9,249,383z"/>
	</g>
	<path class="st1" d="M549,442h-16V100.8c0-12.6-10.2-22.8-22.8-22.8H129.8c-12.6,0-22.8,10.2-22.8,22.8V442H91V100.8
		C91,79.4,108.4,62,129.8,62h380.4c21.4,0,38.8,17.4,38.8,38.8V442z"/>
</g>
<rect class="st2" width="640" height="512"/>
<g>
	<path class="st1" d="M319,366.9c-61.2,0-110.9-49.8-110.9-110.9S257.8,145.1,319,145.1S429.9,194.8,429.9,256
		S380.2,366.9,319,366.9z M319,156.9c-54.7,0-99.1,44.5-99.1,99.1s44.5,99.1,99.1,99.1s99.1-44.5,99.1-99.1S373.7,156.9,319,156.9z"
		/>
	<g>
		<g>
			<path class="st1" d="M365.3,241c2.1-14-8.5-21.5-23.1-26.5l4.7-18.9l-11.5-2.9l-4.6,18.4c-3-0.8-6.1-1.5-9.2-2.2l4.6-18.6
				l-11.5-2.9l-4.7,18.9c-2.5-0.6-5-1.1-7.4-1.7v-0.1l-15.9-4l-3.1,12.3c0,0,8.5,2,8.4,2.1c4.7,1.2,5.5,4.3,5.4,6.7
				c-12.9,51.9,0,0-12.9,51.9c-0.6,1.4-2,3.5-5.3,2.7c0.1,0.2-8.4-2.1-8.4-2.1l-5.7,13.2l15,3.7c2.8,0.7,5.5,1.4,8.2,2.1l-4.8,19.1
				l11.5,2.9l4.7-18.9c3.1,0.9,6.2,1.6,9.2,2.4l-4.7,18.9l11.5,2.9l4.8-19.1c19.6,3.7,34.4,2.2,40.6-15.6c5-14.3-0.2-22.6-10.6-27.9
				C358.1,256.2,363.8,251.3,365.3,241z M339,278c-3.6,14.3-27.7,6.6-35.5,4.6l6.3-25.4C317.6,259.2,342.7,263,339,278z
				 M342.5,240.8c-3.2,13-23.3,6.4-29.8,4.8l5.7-23C325,224.2,345.9,227.3,342.5,240.8z"/>
		</g>
	</g>
</g>
</svg>
