<?xml version="1.0" encoding="utf-8"?>
<!-- Generator: Adobe Illustrator 23.0.3, SVG Export Plug-In . SVG Version: 6.00 Build 0)  -->
<svg version="1.1" id="レイヤー_1" xmlns="http://www.w3.org/2000/svg" xmlns:xlink="http://www.w3.org/1999/xlink" x="0px"
	 y="0px" viewBox="0 0 640 512" style="enable-background:new 0 0 640 512;" xml:space="preserve">
<style type="text/css">
	.st0{fill:none;}
	.st1{fill:#FFF1CF;}
	.st2{fill:#FFB915;}
	.st3{fill:#FFFFFF;}
</style>
<rect class="st0" width="640" height="512"/>
<g>
	<polyline class="st1" points="152,457.2 152,136.2 488,136.2 488,457.2 	"/>
	<path class="st2" d="M519,456.8h-16v-352c0-23.2-18.8-42-42-42H179c-23.2,0-42,18.8-42,42v352h-16v-352c0-32,26-58,58-58h282
		c32,0,58,26,58,58V456.8z"/>
	<path class="st2" d="M320,348.3c-18.3,0-33.2-14.9-33.2-33.2v-74.4c0-18.3,14.9-33.2,33.2-33.2s33.2,14.9,33.2,33.2v74.4
		C353.2,333.4,338.3,348.3,320,348.3z M320,223.5c-9.5,0-17.2,7.7-17.2,17.2v74.4c0,9.5,7.7,17.2,17.2,17.2s17.2-7.7,17.2-17.2
		v-74.4C337.2,231.2,329.5,223.5,320,223.5z"/>
	<g>
		<rect x="264.1" y="271.4" class="st3" width="111.8" height="95.9"/>
		<path class="st2" d="M375.9,375.2H264.1c-4.4,0-8-3.6-8-8v-95.9c0-4.4,3.6-8,8-8h111.8c4.4,0,8,3.6,8,8v95.9
			C383.9,371.7,380.3,375.2,375.9,375.2z M272.1,359.2h95.8v-79.9h-95.8L272.1,359.2L272.1,359.2z"/>
	</g>
</g>
</svg>
