<?xml version="1.0" encoding="utf-8"?>
<!-- Generator: Adobe Illustrator 23.0.3, SVG Export Plug-In . SVG Version: 6.00 Build 0)  -->
<svg version="1.1" id="レイヤー_1" xmlns="http://www.w3.org/2000/svg" xmlns:xlink="http://www.w3.org/1999/xlink" x="0px"
	 y="0px" viewBox="0 0 640 512" style="enable-background:new 0 0 640 512;" xml:space="preserve">
<style type="text/css">
	.st0{fill:none;}
	.st1{fill:#FFF1CF;}
	.st2{fill:#FFB915;}
	.st3{fill:#FFFFFF;}
</style>
<rect class="st0" width="640" height="512"/>
<polyline class="st1" points="147,358 147,137 483,137 483,358 "/>
<g>
	<path class="st2" d="M126,367V122c0-6.6,5.4-12,12-12h354c6.6,0,12,5.4,12,12v245h16V122c0-15.4-12.6-28-28-28H138
		c-15.4,0-28,12.6-28,28v245H126z"/>
	<path class="st2" d="M515,415H115c-26.5,0-48-21.5-48-48c0-4.4,3.6-8,8-8h480c4.4,0,8,3.6,8,8C563,393.5,541.5,415,515,415z
		 M84,375c3.6,13.8,16.1,24,31,24h400c14.9,0,27.4-10.2,31-24H84z"/>
</g>
<g>
	<rect x="361.5" y="179" class="st3" width="211.5" height="254"/>
	<path class="st2" d="M573,440.3H361.5c-4,0-7.3-3.3-7.3-7.3V179c0-4,3.3-7.3,7.3-7.3H573c4,0,7.3,3.3,7.3,7.3v254
		C580.3,437,577,440.3,573,440.3z M368.8,425.7h196.9V186.3H368.8V425.7z"/>
</g>
<g>
	<path class="st2" d="M531.2,377.8h-127c-2.2,0-4-1.8-4-4s1.8-4,4-4h127c2.2,0,4,1.8,4,4S533.5,377.8,531.2,377.8z"/>
</g>
<g>
	<path class="st2" d="M531.5,401h-127c-2.2,0-4-1.8-4-4s1.8-4,4-4h127c2.2,0,4,1.8,4,4S533.7,401,531.5,401z"/>
</g>
<g>
	<path class="st3" d="M518.3,230.2C488.6,220.8,467,214,467,214s-21.6,6.8-51.3,16.2c0,36.5-5.4,86.4,51.3,114.8
		C523.7,316.6,518.3,266.7,518.3,230.2z"/>
	<path class="st2" d="M467,349c-0.6,0-1.2-0.1-1.8-0.4c-24.2-12.1-39.8-29.1-47.5-51.8c-6.6-19.5-6.3-39.8-6.1-57.8
		c0-3,0.1-5.9,0.1-8.7c0-1.7,1.1-3.3,2.8-3.8c29.4-9.3,51.1-16.1,51.3-16.2c0.8-0.2,1.6-0.2,2.4,0c0.2,0.1,22,6.9,51.3,16.2
		c1.7,0.5,2.8,2.1,2.8,3.8c0,2.8,0,5.8,0.1,8.7c0.2,18,0.4,38.3-6.1,57.8c-7.7,22.8-23.2,39.7-47.5,51.8
		C468.2,348.9,467.6,349,467,349z M419.7,233.1c0,1.9,0,3.9-0.1,5.9c-0.4,34.1-0.9,76.3,47.4,101.5c48.2-25.1,47.8-67.4,47.4-101.5
		c0-2,0-4-0.1-5.9c-24.1-7.7-42.6-13.5-47.3-14.9C462.2,219.7,443.8,225.5,419.7,233.1z"/>
</g>
<path class="st1" d="M501.5,244.4c-20-6.4-34.5-10.9-34.5-10.9s-14.5,4.5-34.5,10.9c0,24.5-3.6,58.1,34.5,77.1
	C505.1,302.4,501.5,268.9,501.5,244.4z"/>
</svg>
