<?xml version="1.0" encoding="utf-8"?>
<!-- Generator: Adobe Illustrator 22.1.0, SVG Export Plug-In . SVG Version: 6.00 Build 0)  -->
<svg version="1.1" id="レイヤー_1" xmlns="http://www.w3.org/2000/svg" xmlns:xlink="http://www.w3.org/1999/xlink" x="0px"
	 y="0px" viewBox="0 0 640 512" style="enable-background:new 0 0 640 512;" xml:space="preserve">
<style type="text/css">
	.st0{fill:none;}
	.st1{fill:#38C7A7;}
	.st2{fill:#C5EFE5;}
</style>
<rect class="st0" width="640" height="512"/>
<g>
	<path class="st1" d="M299.8,210.8c-44.1,0-79.9-35.9-79.9-79.9c0-44.1,35.9-79.9,79.9-79.9s79.9,35.9,79.9,79.9
		C379.7,174.9,343.8,210.8,299.8,210.8z M299.8,59.4c-39.4,0-71.4,32-71.4,71.4s32,71.4,71.4,71.4s71.4-32,71.4-71.4
		S339.2,59.4,299.8,59.4z"/>
	<g>
		<g>
			<path class="st1" d="M333.1,120.1c1.5-10.1-6.2-15.5-16.6-19.1l3.4-13.6l-8.3-2.1l-3.3,13.3c-2.2-0.5-4.4-1.1-6.7-1.6l3.3-13.4
				l-8.3-2.1l-3.4,13.6c-1.8-0.4-3.6-0.8-5.3-1.2l0,0L276.5,91l-2.2,8.9c0,0,6.2,1.4,6,1.5c3.4,0.8,4,3.1,3.9,4.8
				c-9.3,37.4,0,0-9.3,37.4c-0.4,1-1.5,2.6-3.8,2c0.1,0.1-6-1.5-6-1.5l-4.1,9.5l10.8,2.7c2,0.5,4,1,5.9,1.5l-3.4,13.8l8.3,2.1
				L286,160c2.3,0.6,4.5,1.2,6.6,1.7l-3.4,13.6l8.3,2.1l3.4-13.8c14.2,2.7,24.8,1.6,29.3-11.2c3.6-10.3-0.2-16.3-7.6-20.1
				C328,131,332,127.4,333.1,120.1z M314.2,146.7c-2.6,10.3-19.9,4.7-25.6,3.3l4.6-18.3C298.8,133.1,316.8,135.9,314.2,146.7z
				 M316.7,119.9c-2.3,9.4-16.8,4.6-21.5,3.4l4.1-16.6C304.1,107.9,319.2,110.1,316.7,119.9z"/>
		</g>
	</g>
</g>
<path class="st2" d="M522.8,76.5c-13.1,0-23.8-10.7-23.8-23.8S509.7,29,522.8,29s23.8,10.7,23.8,23.8S535.8,76.5,522.8,76.5z"/>
<path class="st2" d="M53.8,210C40.7,210,30,199.3,30,186.2s10.7-23.8,23.8-23.8s23.8,10.7,23.8,23.8S66.8,210,53.8,210z"/>
<path class="st2" d="M353.8,465.5c-13.1,0-23.8-10.7-23.8-23.8s10.7-23.8,23.8-23.8s23.8,10.7,23.8,23.8S366.8,465.5,353.8,465.5z"
	/>
<g>
	<path class="st1" d="M158.1,487.9c-1.1,0-2.2-0.1-3.3-0.3L67.4,474c-5.6-0.9-10.5-3.9-13.9-8.5c-3.3-4.6-4.7-10.2-3.8-15.8
		l30.5-195.6c0.9-5.6,3.9-10.5,8.5-13.9c4.6-3.3,10.2-4.7,15.8-3.8l87.4,13.6c5.6,0.9,10.5,3.9,13.9,8.5c3.3,4.6,4.7,10.2,3.8,15.8
		l-30.5,195.6c-0.9,5.6-3.9,10.5-8.5,13.9C166.9,486.5,162.6,487.9,158.1,487.9z M101.1,244.6c-2.7,0-5.3,0.8-7.5,2.5
		c-2.8,2-4.6,5-5.1,8.3L58,451c-0.5,3.4,0.3,6.7,2.3,9.5s5,4.6,8.3,5.1l87.4,13.6l0,0c3.4,0.5,6.7-0.3,9.5-2.3s4.6-5,5.1-8.3
		L201.2,273c0.5-3.4-0.3-6.7-2.3-9.5s-5-4.6-8.3-5.1l-87.4-13.6C102.5,244.7,101.8,244.6,101.1,244.6z"/>
	
		<rect x="45.5" y="311.1" transform="matrix(0.1541 -0.9881 0.9881 0.1541 -242.1906 430.7435)" class="st2" width="170" height="91.5"/>
</g>
<g>
	<path class="st1" d="M506.4,429.1c-8.5,0-16.5-5.1-19.8-13.4l-72.9-184.1c-4.3-10.9,1-23.3,11.9-27.6l82.3-32.6
		c10.9-4.3,23.3,1,27.6,11.9l72.9,184.1c4.3,10.9-1,23.3-11.9,27.6l0,0l-82.3,32.6C511.7,428.6,509,429.1,506.4,429.1z M515.8,178.4
		c-1.6,0-3.1,0.3-4.7,0.9l-82.3,32.6c-3.2,1.3-5.7,3.7-7,6.8c-1.4,3.1-1.4,6.6-0.2,9.8l72.9,184.1c2.6,6.5,10,9.7,16.5,7.2
		l82.3-32.6c3.2-1.3,5.7-3.7,7-6.8c1.4-3.1,1.4-6.6,0.2-9.8l-72.9-184.1C525.7,181.5,520.9,178.4,515.8,178.4z M595,391.1L595,391.1
		L595,391.1z"/>
	
		<rect x="463.4" y="209.6" transform="matrix(0.9298 -0.368 0.368 0.9298 -72.6871 208.0404)" class="st2" width="91.5" height="170"/>
</g>
<rect class="st0" width="640" height="512"/>
<g>
	<path class="st1" d="M269.5,340.1c-1.6,0-3.1-0.9-3.8-2.4c-1-2.1-0.2-4.7,1.9-5.7l101.7-50.1c2.1-1,4.7-0.2,5.7,1.9
		s0.2,4.7-1.9,5.7l-101.7,50.1C270.8,339.9,270.1,340.1,269.5,340.1z"/>
	<path class="st1" d="M361.9,317.6c-0.5,0-0.9-0.1-1.4-0.2c-2.2-0.8-3.4-3.2-2.7-5.4l8-23.5l-23.5-8c-2.2-0.8-3.4-3.2-2.7-5.4
		c0.8-2.2,3.2-3.4,5.4-2.7l27.6,9.4c2.2,0.8,3.4,3.2,2.7,5.4l-9.4,27.6C365.3,316.4,363.6,317.6,361.9,317.6z"/>
	<path class="st1" d="M297.1,349.4c-0.5,0-0.9-0.1-1.4-0.2l-27.6-9.4c-2.2-0.8-3.4-3.2-2.7-5.4l9.4-27.6c0.8-2.2,3.2-3.4,5.4-2.7
		c2.2,0.8,3.4,3.2,2.7,5.4l-8,23.5l23.5,8c2.2,0.8,3.4,3.2,2.7,5.4C300.5,348.3,298.8,349.4,297.1,349.4z"/>
</g>
</svg>
