<?xml version="1.0" encoding="utf-8"?>
<!-- Generator: Adobe Illustrator 23.0.3, SVG Export Plug-In . SVG Version: 6.00 Build 0)  -->
<svg version="1.1" id="レイヤー_1" xmlns="http://www.w3.org/2000/svg" xmlns:xlink="http://www.w3.org/1999/xlink" x="0px"
	 y="0px" viewBox="0 0 640 512" style="enable-background:new 0 0 640 512;" xml:space="preserve">
<style type="text/css">
	.st0{fill:none;}
	.st1{fill:#38C7A7;}
	.st2{fill:#C5EFE5;}
</style>
<rect class="st0" width="640" height="512"/>
<g>
	<path class="st1" d="M182.5,210.6c-44.1,0-79.9-35.9-79.9-79.9s35.9-79.9,79.9-79.9c44.1,0,79.9,35.9,79.9,79.9
		S226.6,210.6,182.5,210.6z M182.5,59.3c-39.4,0-71.4,32-71.4,71.4s32,71.4,71.4,71.4s71.4-32,71.4-71.4S221.9,59.3,182.5,59.3z"/>
	<g>
		<g>
			<g>
				<path class="st1" d="M187.5,152.2V172h-10.7v-19.8h-22.3v-10.5h22.3V139l-2.1-4.2h-20.2v-10.4h15l-17.4-34.9h12.3l16.7,34.9h2.4
					l16.7-34.9h12.6L195,124.4h15.7v10.4h-21.1l-2.2,4.2v2.7h23.2v10.5H187.5z"/>
			</g>
		</g>
	</g>
</g>
<g>
	<path class="st1" d="M503.1,345.3c-44.1,0-79.9-35.9-79.9-79.9c0-44.1,35.9-79.9,79.9-79.9c44.1,0,79.9,35.9,79.9,79.9
		C583,309.5,547.1,345.3,503.1,345.3z M503.1,194c-39.4,0-71.4,32-71.4,71.4s32,71.4,71.4,71.4s71.4-32,71.4-71.4
		S542.4,194,503.1,194z"/>
	<g>
		<g>
			<path class="st1" d="M536.4,254.6c1.5-10.1-6.2-15.5-16.6-19.1l3.4-13.6l-8.3-2.1l-3.3,13.3c-2.2-0.5-4.4-1.1-6.7-1.6l3.3-13.4
				l-8.3-2.1l-3.4,13.6c-1.8-0.4-3.6-0.8-5.3-1.2l0,0l-11.5-2.9l-2.2,8.9c0,0,6.2,1.4,6,1.5c3.4,0.8,4,3.1,3.9,4.8
				c-9.3,37.4,0,0-9.3,37.4c-0.4,1-1.5,2.6-3.8,2c0.1,0.1-6-1.5-6-1.5l-4.1,9.5l10.8,2.7c2,0.5,4,1,5.9,1.5l-3.4,13.8l8.3,2.1
				l3.4-13.7c2.3,0.6,4.5,1.2,6.6,1.7l-3.4,13.6l8.3,2.1l3.4-13.8c14.2,2.7,24.8,1.6,29.3-11.2c3.6-10.3-0.2-16.3-7.6-20.1
				C531.2,265.6,535.3,262,536.4,254.6z M517.4,281.2c-2.6,10.3-19.9,4.7-25.6,3.3l4.6-18.3C502.1,267.7,520.1,270.5,517.4,281.2z
				 M520,254.5c-2.3,9.4-16.8,4.6-21.5,3.4l4.1-16.6C507.3,242.5,522.4,244.7,520,254.5z"/>
		</g>
	</g>
</g>
<g>
	<path class="st1" d="M189.3,480.1c-44.1,0-79.9-35.9-79.9-79.9c0-44.1,35.9-79.9,79.9-79.9c44.1,0,79.9,35.9,79.9,79.9
		S233.4,480.1,189.3,480.1z M189.3,328.7c-39.4,0-71.4,32-71.4,71.4s32,71.4,71.4,71.4s71.4-32,71.4-71.4S228.7,328.7,189.3,328.7z"
		/>
</g>
<path class="st2" d="M424.8,78.5c-13.1,0-23.8-10.7-23.8-23.8S411.7,31,424.8,31s23.8,10.7,23.8,23.8S437.8,78.5,424.8,78.5z"/>
<path class="st2" d="M71.2,302.5c-13.1,0-23.8-10.7-23.8-23.8S58.2,255,71.2,255S95,265.7,95,278.8S84.3,302.5,71.2,302.5z"/>
<path class="st2" d="M498.2,451.5c-13.1,0-23.8-10.7-23.8-23.8s10.7-23.8,23.8-23.8s23.8,10.7,23.8,23.8S511.3,451.5,498.2,451.5z"
	/>
<g>
	<path class="st1" d="M395.3,227.3c-0.6,0-1.3-0.1-1.9-0.4l-101.7-50.1c-2.1-1-3-3.6-1.9-5.7c1-2.1,3.6-3,5.7-1.9l101.7,50.1
		c2.1,1,3,3.6,1.9,5.7C398.4,226.5,396.9,227.3,395.3,227.3z"/>
	<path class="st1" d="M367.8,236.7c-1.8,0-3.4-1.1-4-2.9c-0.8-2.2,0.4-4.6,2.7-5.4l23.5-8l-8-23.5c-0.8-2.2,0.4-4.6,2.7-5.4
		c2.2-0.8,4.6,0.4,5.4,2.7l9.4,27.6c0.8,2.2-0.4,4.6-2.7,5.4l-27.6,9.4C368.7,236.6,368.2,236.7,367.8,236.7z"/>
	<path class="st1" d="M303,204.8c-1.8,0-3.4-1.1-4-2.9l-9.4-27.6c-0.4-1.1-0.3-2.2,0.2-3.2s1.4-1.8,2.4-2.1l27.6-9.4
		c2.2-0.8,4.6,0.4,5.4,2.7c0.8,2.2-0.4,4.6-2.7,5.4l-23.5,8l8,23.5c0.8,2.2-0.4,4.6-2.7,5.4C303.9,204.8,303.5,204.8,303,204.8z"/>
</g>
<g>
	<path class="st1" d="M293.6,362.1c-1.6,0-3.1-0.9-3.8-2.4c-1-2.1-0.2-4.7,1.9-5.7l101.7-50.1c2.1-1,4.7-0.2,5.7,1.9
		s0.2,4.7-1.9,5.7l-101.7,50.1C294.9,361.9,294.2,362.1,293.6,362.1z"/>
	<path class="st1" d="M386,339.6c-0.5,0-0.9-0.1-1.4-0.2c-2.2-0.8-3.4-3.2-2.7-5.4l8-23.5l-23.5-8c-2.2-0.8-3.4-3.2-2.7-5.4
		c0.8-2.2,3.2-3.4,5.4-2.7l27.6,9.4c2.2,0.8,3.4,3.2,2.7,5.4l-9.4,27.6C389.4,338.4,387.7,339.6,386,339.6z"/>
	<path class="st1" d="M321.2,371.4c-0.5,0-0.9-0.1-1.4-0.2l-27.6-9.4c-1.1-0.4-1.9-1.1-2.4-2.1s-0.6-2.2-0.2-3.2l9.4-27.6
		c0.8-2.2,3.2-3.4,5.4-2.7c2.2,0.8,3.4,3.2,2.7,5.4l-8,23.5l23.5,8c2.2,0.8,3.4,3.2,2.7,5.4C324.6,370.3,322.9,371.4,321.2,371.4z"
		/>
</g>
<g>
	<path class="st1" d="M217.6,365.5h11.6l-24.1,24.9c-8.7,9-22.8,9-31.5,0l-24.1-24.9H161l18.3,19c5.5,5.7,14.5,5.7,20,0L217.6,365.5
		z"/>
	<path class="st1" d="M160.9,434.9h-11.6l24.2-25.1c8.7-9,22.8-9,31.5,0l24.2,25.1h-11.6l-18.4-19.1c-5.5-5.7-14.5-5.7-20,0
		L160.9,434.9z"/>
</g>
</svg>
